HIERARCHY
ROOT Hips
{
	OFFSET 0.00 0.00 0.00
	CHANNELS 6 Xposition Yposition Zposition Xrotation Yrotation Zrotation
	JOINT LeftUpLeg
	{
		OFFSET 3.76682 0.00000 0.00000
		CHANNELS 3 Xrotation Yrotation Zrotation
		JOINT LeftLeg
		{
			OFFSET 0.00000 -17.03178 0.00000
			CHANNELS 3 Xrotation Yrotation Zrotation
			JOINT LeftFoot
			{
				OFFSET 0.00000 -15.72190 0.00000
				CHANNELS 3 Xrotation Yrotation Zrotation
				JOINT LeftToeBase
				{
					OFFSET 0.00000 -1.61281 6.01911
					CHANNELS 3 Xrotation Yrotation Zrotation
					End Site
					{
						OFFSET 0.00000 0.00000 2.95275
					}
				}
			}
		}
	}
	JOINT RightUpLeg
	{
		OFFSET -3.76682 0.00000 0.00000
		CHANNELS 3 Xrotation Yrotation Zrotation
		JOINT RightLeg
		{
			OFFSET 0.00000 -17.03178 0.00000
			CHANNELS 3 Xrotation Yrotation Zrotation
			JOINT RightFoot
			{
				OFFSET 0.00000 -15.72190 0.00000
				CHANNELS 3 Xrotation Yrotation Zrotation
				JOINT RightToeBase
				{
					OFFSET 0.00000 -1.61281 6.01911
					CHANNELS 3 Xrotation Yrotation Zrotation
					End Site
					{
						OFFSET 0.00000 0.00000 2.95275
					}
				}
			}
		}
	}
	JOINT Spine
	{
		OFFSET 0.00000 0.03937 0.00000
		CHANNELS 3 Xrotation Yrotation Zrotation
		JOINT Spine1
		{
			OFFSET 0.00000 6.63648 0.00000
			CHANNELS 3 Xrotation Yrotation Zrotation
			JOINT Neck
			{
				OFFSET 0.00000 10.89313 0.00000
				CHANNELS 3 Xrotation Yrotation Zrotation
				JOINT Head
				{
					OFFSET 0.00000 5.84841 0.00000
					CHANNELS 3 Xrotation Yrotation Zrotation
					End Site
					{
						OFFSET 0.00000 4.52755 0.00000
					}
				}
			}
			JOINT LeftShoulder
			{
				OFFSET 0.00000 10.89313 0.00000
				CHANNELS 3 Xrotation Yrotation Zrotation
				JOINT LeftArm
				{
					OFFSET 7.21266 -0.00003 0.00000
					CHANNELS 3 Xrotation Yrotation Zrotation
					JOINT LeftForeArm
					{
						OFFSET 9.64829 -0.00004 0.00000
						CHANNELS 3 Xrotation Yrotation Zrotation
						JOINT LeftHand
						{
							OFFSET 9.06793 -0.00003 0.00000
							CHANNELS 3 Xrotation Yrotation Zrotation
							JOINT LeftHandThumb
							{
								OFFSET 0.00000 0.00000 0.00000
								CHANNELS 3 Xrotation Yrotation Zrotation
								End Site
								{
									OFFSET 0.00000 0.00000 3.93700
								}
							}
							JOINT L_Wrist_End
							{
								OFFSET 3.93700 -0.00001 0.00000
								CHANNELS 3 Xrotation Yrotation Zrotation
							}
						}
					}
				}
			}
			JOINT RightShoulder
			{
				OFFSET 0.00000 10.89313 0.00000
				CHANNELS 3 Xrotation Yrotation Zrotation
				JOINT RightArm
				{
					OFFSET -7.21266 -0.00003 0.00000
					CHANNELS 3 Xrotation Yrotation Zrotation
					JOINT RightForeArm
					{
						OFFSET -9.64829 -0.00004 0.00000
						CHANNELS 3 Xrotation Yrotation Zrotation
						JOINT RightHand
						{
							OFFSET -9.06793 -0.00003 0.00000
							CHANNELS 3 Xrotation Yrotation Zrotation
							JOINT RightHandThumb
							{
								OFFSET 0.00000 0.00000 0.00000
								CHANNELS 3 Xrotation Yrotation Zrotation
								End Site
								{
									OFFSET 0.00000 0.00000 3.93700
								}
							}
							JOINT R_Wrist_End
							{
								OFFSET -5.39369 -0.00002 0.00000
								CHANNELS 3 Xrotation Yrotation Zrotation
							}
						}
					}
				}
			}
		}
	}
}
MOTION
Frames: 19
Frame Time: 0.008333
 29.2027 34.6483 -54.5812 -3.4954 -2.3899 6.1218 -7.9122 -0.7938 -9.1314 8.5852 -0.0000 0.0000 4.9366 20.0373 -5.3719 -13.5292 -0.0000 0.0000 13.1877 0.4784 -9.5692 30.5846 -0.0000 0.0000 -2.7476 5.5699 0.1767 -30.5397 0.0000 0.0000 -15.8915 7.0784 8.0827 13.8352 2.2487 -15.4956 23.8169 13.1471 0.9061 -15.6789 2.3139 -1.3001 9.0300 2.1488 5.5721 3.0859 3.2651 -76.3656 -0.0001 -14.4333 -0.0000 8.8670 7.1247 11.0330 -0.0000 -0.0000 0.0000 -0.0000 -0.0000 0.0000 5.7743 5.4697 -5.2515 6.6178 22.1512 73.5034 -0.0002 46.4074 0.0001 14.8775 -41.8008 -7.4192 -0.0000 0.0000 0.0000 -0.0000 0.0000 0.0000
 29.3495 34.6559 -54.2882 -3.7634 -2.0673 6.2521 -7.2605 -1.2997 -9.6021 8.5791 -0.0000 0.0000 4.5041 20.0141 -4.8254 -13.2010 0.0000 0.0000 12.5084 0.0645 -10.0340 32.8915 -0.0000 0.0000 -1.2334 6.2408 0.9768 -32.3149 0.0000 -0.0000 -15.7476 7.0116 8.1017 13.7180 2.1408 -15.4871 24.0216 13.1328 0.8472 -15.7608 2.1392 -1.5089 9.1434 2.0683 5.6597 2.4827 4.1349 -76.6809 -0.0001 -14.0771 -0.0000 8.4199 6.5843 11.2165 0.0000 -0.0000 -0.0000 0.0000 -0.0000 -0.0000 5.9603 5.2649 -5.4228 6.5725 22.0391 73.9515 -0.0002 46.1333 0.0001 14.8927 -41.9278 -7.0748 -0.0000 -0.0000 0.0000 -0.0000 -0.0000 0.0000
 29.4991 34.6613 -53.9786 -4.2185 -1.9081 6.6761 -6.2273 -1.4470 -10.3406 8.2904 -0.0000 0.0000 4.4181 19.8474 -4.2658 -13.6158 0.0000 -0.0000 11.8920 -0.5954 -10.9142 35.3806 -0.0000 0.0000 0.2488 7.0932 1.0368 -33.6093 0.0000 -0.0000 -15.4191 7.0662 7.9210 13.5855 2.1109 -15.6232 24.2349 13.1317 0.8693 -15.7525 1.9847 -1.5910 8.9435 1.9715 5.8570 2.5292 5.1076 -77.0213 -0.0001 -14.4637 -0.0000 7.9254 6.7173 11.0724 -0.0000 -0.0000 -0.0000 -0.0000 -0.0000 -0.0000 6.3283 4.9625 -5.6205 6.2768 22.3813 74.3582 -0.0002 45.4211 0.0001 14.1568 -41.6188 -7.2039 0.0000 -0.0000 -0.0000 0.0000 -0.0000 -0.0000
 29.6483 34.6597 -53.6982 -4.4937 -1.6505 6.9545 -5.5376 -1.8106 -10.9264 8.1778 0.0000 0.0000 4.1870 19.7675 -3.8382 -13.5933 0.0000 -0.0000 11.0091 -1.0349 -11.5958 38.1103 -0.0000 0.0000 1.0089 7.7165 1.4812 -30.1359 0.0000 0.0000 -15.2320 7.0466 7.8308 13.4804 2.0451 -15.6510 24.4512 13.0772 0.9001 -15.8551 1.8128 -1.8926 8.8549 1.7663 5.9444 2.3367 6.0247 -77.2856 -0.0001 -14.6129 -0.0000 7.4423 6.5643 11.1231 -0.0000 -0.0000 0.0000 -0.0000 -0.0000 0.0000 6.4747 4.9150 -5.8389 6.3026 22.2224 74.7933 -0.0002 45.0114 0.0001 14.0596 -41.5248 -6.8364 -0.0000 -0.0000 0.0000 -0.0000 -0.0000 0.0000
 29.7925 34.6500 -53.4299 -4.7526 -1.3793 7.2052 -4.9372 -2.0392 -11.4556 8.2238 0.0000 -0.0000 3.8099 19.5612 -3.5628 -13.4958 0.0000 -0.0000 9.9959 -1.5101 -12.2662 41.0130 -0.0000 0.0000 1.6045 8.1780 1.5315 -25.8947 0.0000 -0.0000 -14.9643 7.0287 7.7069 13.2760 1.9808 -15.6347 24.6700 12.8737 1.0417 -15.9627 1.7484 -2.3487 8.7535 1.5564 6.0170 2.1333 6.9505 -77.5187 -0.0001 -14.7706 -0.0000 6.9524 6.3599 11.2640 0.0000 -0.0000 -0.0000 0.0000 -0.0000 -0.0000 6.5946 4.8688 -5.9976 6.4080 22.1145 75.1074 -0.0002 44.6346 0.0001 13.9825 -41.4654 -6.4670 -0.0000 0.0000 -0.0000 -0.0000 0.0000 -0.0000
 29.9385 34.6403 -53.1564 -4.9921 -1.2136 7.5055 -4.2807 -2.0059 -12.0198 8.2316 0.0000 0.0000 3.4259 19.2847 -3.0944 -13.5092 0.0000 -0.0000 8.8893 -1.9939 -13.0636 43.8848 -0.0000 0.0000 2.5265 8.7962 1.4202 -24.4149 0.0000 -0.0000 -14.7707 7.0321 7.5976 13.1546 1.9428 -15.6614 24.9236 12.9596 0.9469 -16.1541 1.4089 -2.4730 8.6243 1.4009 6.0241 1.9084 7.9038 -77.6660 -0.0001 -14.9521 -0.0000 6.6013 6.2033 11.4224 0.0000 -0.0000 -0.0000 0.0000 -0.0000 -0.0000 6.6658 4.8735 -6.1131 6.6154 22.1099 75.3019 -0.0002 44.2904 0.0001 13.7743 -41.4729 -6.1860 0.0000 0.0000 0.0000 0.0000 0.0000 0.0000
 30.0858 34.6249 -52.8945 -5.2129 -1.0456 7.8153 -3.6592 -1.9463 -12.5776 8.2669 -0.0000 0.0000 3.0924 18.9173 -2.7160 -13.5832 0.0000 -0.0000 7.7093 -2.4173 -13.8983 46.7649 -0.0000 0.0000 3.4917 9.2411 1.5740 -22.1764 0.0000 0.0000 -14.5515 7.0281 7.4805 13.0096 1.8958 -15.6886 25.1623 12.9634 0.8843 -16.3274 1.0984 -2.6612 8.4729 1.2685 5.9708 1.6420 8.8537 -77.7436 -0.0001 -15.1306 -0.0000 6.2085 5.9518 11.6650 -0.0000 -0.0000 0.0000 -0.0000 -0.0000 0.0000 6.7148 4.8998 -6.1851 6.8961 22.0613 75.4070 -0.0002 44.0331 0.0001 13.8758 -41.4732 -5.7785 0.0000 -0.0000 -0.0000 0.0000 -0.0000 -0.0000
 30.2256 34.6057 -52.6366 -5.3961 -0.9286 8.0628 -3.0290 -1.5964 -13.0397 8.3410 -0.0000 -0.0000 2.7077 18.3303 -2.3318 -13.8390 -0.0000 -0.0000 6.4627 -2.6850 -14.6363 49.6464 0.0000 0.0000 4.3249 9.4964 1.8678 -19.2441 0.0000 0.0000 -14.4014 6.9997 7.4156 12.9306 1.8340 -15.7070 25.3328 13.0559 0.7418 -16.4523 0.7095 -2.7673 8.3359 1.2037 5.8425 1.3000 9.8582 -77.7139 -0.0001 -15.4482 -0.0000 5.8851 5.9150 11.7808 -0.0000 0.0000 -0.0000 -0.0000 0.0000 -0.0000 6.6913 4.9441 -6.2491 7.1834 22.1953 75.4526 -0.0002 43.6822 0.0001 13.7188 -41.4062 -5.5239 -0.0000 0.0000 0.0000 -0.0000 0.0000 0.0000
 30.3718 34.5854 -52.3880 -5.5377 -0.8184 8.4130 -2.4564 -1.1353 -13.6064 8.4931 -0.0000 0.0000 2.3234 17.6666 -1.8486 -13.7297 0.0000 0.0000 5.1399 -2.9098 -15.5361 52.4076 -0.0000 0.0000 5.3727 9.6677 2.2152 -16.1306 0.0000 -0.0000 -14.2730 6.9914 7.2944 12.8923 1.7922 -15.7761 25.4074 12.9508 0.7448 -16.4687 0.4658 -2.9539 8.0456 1.0813 5.7019 1.1174 10.5966 -77.6358 -0.0001 -15.7188 -0.0000 5.3951 5.7792 12.0750 0.0000 -0.0000 -0.0000 0.0000 -0.0000 -0.0000 6.5733 4.9453 -6.2188 7.5563 22.3750 75.3648 -0.0002 43.3261 0.0001 13.7664 -41.4577 -5.1957 -0.0000 0.0000 0.0000 -0.0000 0.0000 0.0000
 30.5114 34.5627 -52.1454 -5.6139 -0.6857 8.7602 -1.9186 -0.7316 -14.1556 8.5508 -0.0000 0.0000 2.0069 17.0351 -1.3678 -13.7961 0.0000 0.0000 3.7542 -2.9786 -16.3572 55.0905 -0.0000 0.0000 6.3941 9.6054 2.7557 -12.5182 0.0000 -0.0000 -14.1852 6.9590 7.1549 12.8401 1.7336 -15.8565 25.4754 12.9182 0.6975 -16.5115 0.1561 -3.0523 7.8864 1.0431 5.5656 0.6870 11.5307 -77.5659 -0.0001 -16.0522 -0.0000 5.1240 5.7282 12.3140 -0.0000 -0.0000 0.0000 -0.0000 -0.0000 0.0000 6.5699 4.9715 -6.1230 7.9030 22.6142 75.1359 -0.0002 43.0529 0.0001 13.6656 -41.4645 -4.9563 0.0000 0.0000 -0.0000 0.0000 0.0000 -0.0000
 30.6442 34.5403 -51.9076 -5.6841 -0.5857 9.0493 -1.4001 -0.3815 -14.6352 8.6333 -0.0000 -0.0000 1.6397 16.4625 -0.9638 -13.7381 -0.0000 -0.0000 2.3603 -2.9458 -17.0687 57.6206 -0.0000 0.0000 7.6473 9.2728 3.3114 -9.5717 0.0000 -0.0000 -14.1197 6.9507 7.0637 12.8423 1.7000 -15.9210 25.5029 12.8747 0.6357 -16.5295 -0.2269 -3.1093 7.7348 0.9678 5.3643 0.2628 12.2132 -77.3708 -0.0001 -16.4586 -0.0000 4.5901 5.6501 12.5972 -0.0000 -0.0000 0.0000 -0.0000 -0.0000 0.0000 6.4804 4.9473 -6.0305 8.2845 22.8416 74.9360 -0.0002 42.7653 0.0001 13.7181 -41.5152 -4.7107 0.0000 0.0000 -0.0000 0.0000 0.0000 -0.0000
 30.7605 34.5215 -51.6745 -5.7759 -0.4504 9.1766 -0.8777 0.2735 -14.9097 8.9208 -0.0000 -0.0000 1.1692 15.5446 -0.6053 -13.8006 0.0000 0.0000 0.9789 -2.9772 -17.5335 60.0259 -0.0000 0.0000 8.7615 8.5952 3.3690 -9.1971 0.0000 0.0000 -14.0745 6.9090 7.0415 12.8907 1.6392 -15.9438 25.3392 12.3367 0.9670 -16.2825 -0.0497 -3.5112 7.6346 0.9648 5.1826 -0.3680 12.9113 -77.1373 -0.0001 -16.8172 -0.0000 4.1402 5.4348 12.7567 0.0000 0.0000 0.0000 0.0000 0.0000 0.0000 6.4918 4.9309 -5.8396 8.6273 23.0658 74.6172 -0.0002 42.5416 0.0001 13.6000 -41.5668 -4.6163 -0.0000 0.0000 0.0000 -0.0000 0.0000 0.0000
 30.8694 34.5011 -51.4522 -5.8096 -0.3305 9.3295 -0.4233 0.6932 -15.2103 9.0753 -0.0000 -0.0000 0.7343 14.9231 -0.3782 -13.6033 0.0000 -0.0000 -0.4144 -2.8267 -17.9564 62.4196 0.0000 0.0000 8.7903 7.7170 3.7173 -8.7999 0.0000 0.0000 -14.0508 6.8785 7.0005 12.9435 1.5739 -16.0059 25.2619 12.1299 1.1521 -16.2300 -0.2206 -3.7895 7.4055 0.8353 5.0269 -0.7298 13.5955 -76.9077 -0.0001 -17.4019 -0.0000 3.6288 5.3277 12.8861 0.0000 0.0000 -0.0000 0.0000 0.0000 -0.0000 6.4520 4.8838 -5.6779 8.8648 23.2922 74.4004 -0.0002 42.1789 0.0001 13.7337 -41.5863 -4.4929 0.0000 0.0000 0.0000 0.0000 0.0000 0.0000
 30.9728 34.4843 -51.2388 -5.7774 -0.1998 9.4771 -0.0787 1.0226 -15.5136 9.2426 -0.0000 0.0000 0.3665 14.4402 0.0798 -13.5899 0.0000 -0.0000 -1.8673 -2.6384 -18.3196 64.7149 -0.0000 0.0000 8.1470 6.7211 3.7593 -9.0489 0.0000 0.0000 -14.0374 6.8384 6.9813 12.9613 1.4758 -16.1286 25.1477 11.9971 1.2660 -16.1826 -0.4207 -3.9258 7.2703 0.8244 4.8724 -1.2201 14.0607 -76.6403 -0.0001 -18.0232 -0.0000 3.0395 5.1031 13.0911 0.0000 0.0000 -0.0000 0.0000 0.0000 -0.0000 6.3727 4.8250 -5.4729 9.1182 23.5215 74.1691 -0.0002 41.8340 0.0001 13.8556 -41.6349 -4.4012 -0.0000 0.0000 -0.0000 -0.0000 0.0000 -0.0000
 31.0576 34.4739 -51.0166 -5.8820 0.0321 9.4425 0.3854 1.1965 -15.6017 9.4164 -0.0000 0.0000 -0.0828 13.9630 0.3890 -13.5148 0.0000 -0.0000 -3.0540 -2.5103 -18.3607 66.6921 -0.0000 0.0000 7.1243 5.6287 3.5676 -9.3177 0.0000 0.0000 -13.9804 6.7342 6.9935 13.0375 1.3521 -16.1315 24.9818 11.6425 1.4559 -16.0666 -0.4529 -4.0619 7.1882 0.8063 4.7272 -1.8069 14.4362 -76.3366 -0.0001 -18.6375 -0.0000 2.6384 5.0001 13.1908 -0.0000 0.0000 -0.0000 -0.0000 0.0000 -0.0000 6.2891 4.7237 -5.2244 9.3987 23.6073 73.9651 -0.0002 41.5635 0.0001 14.1110 -41.7797 -4.3193 0.0000 -0.0000 -0.0000 0.0000 -0.0000 -0.0000
 31.1576 34.4668 -50.8131 -5.7287 0.2176 9.5679 0.5691 1.2086 -15.8900 9.4545 -0.0000 0.0000 -0.3196 13.7625 0.7250 -13.5684 0.0000 0.0000 -4.6163 -2.3013 -18.6174 68.6509 -0.0000 0.0000 6.0145 4.6974 2.9356 -9.2201 0.0000 -0.0000 -14.0525 6.6787 7.0496 13.0334 1.2136 -16.3358 24.9138 11.6947 1.4677 -16.1415 -0.8351 -4.0858 7.1135 0.8361 4.6249 -2.4296 14.6672 -76.0598 -0.0001 -19.1783 -0.0000 2.1060 4.6687 13.3890 0.0000 -0.0000 -0.0000 0.0000 -0.0000 -0.0000 6.4250 4.6114 -5.0909 9.3408 23.7988 73.8616 -0.0002 41.1287 0.0001 15.2527 -41.9110 -3.8872 -0.0000 -0.0000 -0.0000 -0.0000 -0.0000 -0.0000
 31.2429 34.4655 -50.5981 -5.8268 0.5724 9.5090 0.9332 0.8578 -15.9815 9.4928 -0.0000 -0.0000 -0.6325 13.7206 1.0613 -13.5710 0.0000 -0.0000 -5.8127 -2.2966 -18.5764 70.2114 -0.0000 0.0000 5.1177 3.6970 2.0908 -9.3734 0.0000 0.0000 -13.9849 6.5420 7.0641 13.0981 1.0611 -16.3194 24.7318 11.2409 1.7124 -16.0337 -0.8220 -4.2767 6.9675 0.7205 4.6033 -2.9157 14.8534 -75.8771 -0.0001 -19.7880 -0.0000 1.9569 4.7531 13.3885 0.0000 0.0000 -0.0000 0.0000 0.0000 -0.0000 6.5221 4.4901 -4.8813 9.4718 23.6767 73.7305 -0.0002 40.8923 0.0001 15.4617 -42.0452 -3.9005 -0.0000 0.0000 0.0000 -0.0000 0.0000 0.0000
 31.3245 34.4700 -50.4031 -5.7034 1.0790 9.3957 0.9547 0.4892 -16.0021 9.6922 -0.0000 0.0000 -0.9622 13.6087 1.3541 -13.4331 -0.0000 -0.0000 -7.2802 -2.3635 -18.4576 71.6136 -0.0000 0.0000 4.4465 2.7810 1.1922 -9.4666 0.0000 0.0000 -14.0915 6.3359 7.1629 13.1040 0.8116 -16.3977 24.6183 11.0403 1.8905 -16.0568 -1.0176 -4.3844 6.8738 0.6431 4.6287 -3.4978 14.6574 -75.6577 -0.0001 -20.1628 -0.0000 1.6919 4.4839 13.5695 0.0000 0.0000 -0.0000 0.0000 0.0000 -0.0000 6.6018 4.2341 -4.6859 9.4182 23.6987 73.6611 -0.0002 40.5082 0.0001 15.7363 -42.1746 -3.7937 0.0000 -0.0000 -0.0000 0.0000 -0.0000 -0.0000
 31.4072 34.4796 -50.1885 -5.7824 1.3920 9.3180 1.3468 0.1621 -16.0679 9.6459 -0.0000 0.0000 -1.1696 13.6123 1.7339 -13.4160 0.0000 -0.0000 -8.4672 -2.2763 -18.3486 72.8106 -0.0000 0.0000 3.7913 1.9579 0.5052 -9.2520 0.0000 0.0000 -14.0371 6.1993 7.1749 13.1512 0.6679 -16.3644 24.5207 10.7179 2.0545 -16.0624 -1.1221 -4.4685 6.8127 0.5322 4.7637 -3.9395 14.8111 -75.6662 -0.0001 -20.9240 -0.0000 1.7263 4.6209 13.5342 -0.0000 0.0000 -0.0000 -0.0000 0.0000 -0.0000 6.7368 4.1167 -4.5911 9.4603 23.5987 73.6482 -0.0002 40.1351 0.0001 15.6533 -42.0952 -4.0035 -0.0000 0.0000 -0.0000 -0.0000 0.0000 -0.0000
